<svg id="Capa_1" enable-background="new 0 0 502 502" height="512" viewBox="0 0 502 502" width="512" xmlns="http://www.w3.org/2000/svg" xmlns:xlink="http://www.w3.org/1999/xlink"><linearGradient id="SVGID_1_" gradientUnits="userSpaceOnUse" x1="308.247" x2="308.247" y1="335.274" y2="460.866"><stop offset=".0223" stop-color="#8959c3"/><stop offset="1" stop-color="#a27ccf"/></linearGradient><linearGradient id="SVGID_2_" gradientUnits="userSpaceOnUse" x1="251" x2="251" y1="41.134" y2="358.747"><stop offset=".0212" stop-color="#ffb1db"/><stop offset="1" stop-color="#fd86c8"/></linearGradient><g><path d="m371.402 407.759c-12.8-10.7-24.77-26.677-24.77-49.012l-75.16-23.473-37.216 23.473c19.487 58.219 77.033 88.059 106.884 99.983 10.819 4.321 23.155 1.973 31.648-6.001 13.161-12.357 12.464-33.392-1.386-44.97z" fill="url(#SVGID_1_)"/><path d="m346.632 358.747-75.16-23.473-37.216 23.473c3.995 11.935 9.607 22.658 16.234 32.298h105.818c-5.753-8.82-9.676-19.516-9.676-32.298z" fill="#8959c3"/><path d="m464.063 222.894c3.69-9.738 5.727-20.288 5.727-31.32 0-46.252-35.52-84.185-80.767-88.067-11.118-36.119-44.747-62.373-84.513-62.373-20.116 0-38.653 6.729-53.51 18.043-14.857-11.314-33.394-18.043-53.51-18.043-39.766 0-73.395 26.254-84.513 62.373-45.246 3.882-80.767 41.815-80.767 88.067 0 11.031 2.037 21.582 5.727 31.32-22.574 12.24-37.937 36.152-37.937 63.581 0 39.856 32.417 72.273 72.273 72.273h357.455c39.856 0 72.273-32.417 72.273-72.273-.001-27.429-15.364-51.341-37.938-63.581z" fill="url(#SVGID_2_)"/><g><path d="m337.11 98.194c-5.899-6.081-13.527-10.551-21.48-12.585-5.76-1.473-9.235-7.338-7.762-13.098 1.474-5.76 7.332-9.238 13.099-7.762 11.919 3.049 22.846 9.43 31.598 18.454 4.14 4.268 4.036 11.084-.232 15.224-4.267 4.138-11.083 4.037-15.223-.233z" fill="#fdc6e3"/></g><g><path d="m257.604 94.596c-3.546-4.773-2.551-11.517 2.223-15.063 3.921-2.912 9.183-6.648 15.118-9.713 5.281-2.727 11.777-.657 14.506 4.628 2.727 5.283.656 11.777-4.627 14.505-4.558 2.352-8.89 5.439-12.157 7.865-4.776 3.546-11.519 2.551-15.063-2.222z" fill="#fdc6e3"/></g><g fill="#fd75be"><path d="m126.292 216.509c-7.664-5.933-16.333-10.625-25.703-13.797 7.042-5.22 13.247-12.216 16.136-21.515 1.323-4.259-1.057-8.784-5.316-10.107-4.257-1.322-8.783 1.057-10.107 5.316-2.87 9.24-12.117 15.274-19.368 18.709-2.568 1.216-5.078 2.201-7.35 2.992h.001c-.77-.02-1.538-.049-2.314-.049-13.88 0-27.009 3.206-38.698 8.906.966 5.502 2.432 10.829 4.365 15.93 10.219-5.541 21.915-8.692 34.335-8.692 16.607 0 31.917 5.64 44.122 15.098 3.194 2.475 7.744 2.135 10.602-.722 3.422-3.423 3.123-9.105-.705-12.069z"/><path d="m241.105 130.751c-9.336-.048-15.162-2.139-18.793-4.639-3.814-2.625-5.685-7.337-4.887-11.898 3.914-22.361 16.231-41.829 33.576-55.038-4.515-3.439-9.37-6.451-14.507-8.981-18.813 16.148-31.841 38.853-35.501 64.536-.718 5.037-3.67 9.552-8.075 12.098-3.738 2.16-9.24 3.875-17.3 3.921-4.39.025-8.23 3.366-8.401 7.752-.18 4.607 3.501 8.398 8.068 8.398 17.698 0 27.656-6.018 33.074-11.549 5.418 5.531 15.377 11.549 33.074 11.549 4.565 0 8.245-3.788 8.068-8.392-.168-4.385-4.007-7.735-8.396-7.757z"/><path d="m429.729 198.058c-3.506 0-6.959.218-10.358.616-9.169-10.811-24.809-21.724-51.083-23.817-4.474-.372-8.335 2.963-8.691 7.407-.354 4.445 2.963 8.336 7.408 8.69 15.377 1.226 26.128 6.027 33.645 12.007-9.081 3.167-17.486 7.775-24.944 13.548-3.828 2.963-4.127 8.645-.704 12.068 2.857 2.857 7.408 3.197 10.602.722 12.205-9.458 27.516-15.098 44.122-15.098 12.42 0 24.116 3.151 34.335 8.692 1.933-5.101 3.399-10.428 4.365-15.93-11.688-5.699-24.816-8.905-38.697-8.905z"/><path d="m401.739 290.333c-7.171 22.675-21.154 32.231-32.073 36.257-6.274-9.366-10.433-20.263-11.749-32.015-.497-4.443-4.429-7.681-8.875-7.212-4.461.471-7.678 4.489-7.182 8.948 2.867 25.759 16.855 48.2 37.027 62.436h50.841c-18.939 0-36.188-7.335-49.087-19.3 12.307-5.815 28.25-18.172 36.497-44.245 1.344-4.252-1.012-8.789-5.264-10.134-4.255-1.341-8.79 1.014-10.135 5.265z"/></g><g><ellipse cx="80.969" cy="320.336" fill="#fd75be" rx="18.579" ry="14.931"/><ellipse cx="299.611" cy="320.336" fill="#fd75be" rx="18.579" ry="14.931"/><circle cx="112.822" cy="283.494" fill="#fff" r="36.842"/><circle cx="267.758" cy="283.494" fill="#fff" r="36.842"/><g fill="#383842"><g><circle cx="112.822" cy="283.494" r="21.958"/><circle cx="267.758" cy="283.494" r="21.958"/></g><path d="m190.29 320.279c-6.233 0-12.466-2.357-17.55-7.071-2.025-1.877-2.145-5.041-.267-7.066 1.877-2.025 5.042-2.145 7.066-.267 6.33 5.869 15.173 5.869 21.503 0 2.025-1.876 5.188-1.758 7.066.267 1.877 2.025 1.758 5.188-.267 7.066-5.085 4.714-11.318 7.071-17.551 7.071z"/></g></g></g></svg>